<svg xmlns="http://www.w3.org/2000/svg" viewBox="0 0 256 256" width="256" height="256">
  <defs>
    <linearGradient id="bg" x1="0%" y1="0%" x2="100%" y2="100%">
      <stop offset="0%" stop-color="#1E293B"/>
      <stop offset="100%" stop-color="#0F172A"/>
    </linearGradient>
    <linearGradient id="accent" x1="0%" y1="0%" x2="100%" y2="100%">
      <stop offset="0%" stop-color="#38BDF8"/>
      <stop offset="100%" stop-color="#6366F1"/>
    </linearGradient>
  </defs>

  <rect x="0" y="0" width="256" height="256" rx="48" fill="url(#bg)"/>

  <g stroke="#334155" stroke-width="1" opacity="0.5">
    <line x1="48" y1="0" x2="48" y2="256"/>
    <line x1="208" y1="0" x2="208" y2="256"/>
    <line x1="0" y1="48" x2="256" y2="48"/>
    <line x1="0" y1="208" x2="256" y2="208"/>
  </g>

  <g fill="#F8FAFC">
    <rect x="98" y="84" width="60" height="13"/>
    <rect x="98" y="84" width="13" height="50"/>
    <rect x="98" y="121" width="60" height="13"/>
    <rect x="145" y="121" width="13" height="51"/>
    <rect x="98" y="159" width="60" height="13"/>
  </g>

  <g fill="none" stroke="#38BDF8" stroke-width="3" stroke-linejoin="miter" stroke-linecap="square" opacity="0.8">
    <polyline points="56,40 40,40 40,56"/>
    <polyline points="200,216 216,216 216,200"/>
  </g>
</svg>
